<svg xmlns:xlink="http://www.w3.org/1999/xlink" width="102" xmlns="http://www.w3.org/2000/svg" height="102" id="screenshot-4dd53623-d04e-80cf-8003-c6cf5dc6bf51" viewBox="-1 -1 102 102" style="-webkit-print-color-adjust: exact;" fill="none" version="1.1"><g id="shape-4dd53623-d04e-80cf-8003-c6cf5dc6bf51"><g class="fills" id="fills-4dd53623-d04e-80cf-8003-c6cf5dc6bf51"><path rx="0" ry="0" d="M17.097,65.225C16.685,64.335,16.307,63.427,15.966,62.500L-0.000,62.500L-0.000,37.500L15.966,37.500C16.307,36.573,16.685,35.665,17.097,34.775L5.806,23.483L23.483,5.806L34.775,17.097C35.665,16.685,36.573,16.307,37.500,15.966L37.500,0.000L62.500,0.000L62.500,15.966C63.427,16.307,64.335,16.685,65.225,17.097L76.517,5.806L94.194,23.483L82.903,34.775C83.315,35.665,83.693,36.573,84.034,37.500L100.000,37.500L100.000,62.500L84.034,62.500C83.693,63.427,83.315,64.335,82.903,65.225L94.194,76.517L76.517,94.194L65.225,82.903C64.335,83.315,63.427,83.693,62.500,84.034L62.500,100.000L37.500,100.000L37.500,84.034C36.573,83.693,35.665,83.315,34.775,82.903L23.483,94.194L5.806,76.517L17.097,65.225ZM50.938,32.500C40.762,32.500,32.500,40.762,32.500,50.938C32.500,61.113,40.762,69.375,50.938,69.375C61.113,69.375,69.375,61.113,69.375,50.938C69.375,40.762,61.113,32.500,50.938,32.500Z" style="fill: rgb(255, 255, 255); fill-opacity: 1;"/></g><g id="strokes-4dd53623-d04e-80cf-8003-c6cf5dc6bf51" class="strokes"><g class="stroke-shape"><path rx="0" ry="0" d="M17.097,65.225C16.685,64.335,16.307,63.427,15.966,62.500L-0.000,62.500L-0.000,37.500L15.966,37.500C16.307,36.573,16.685,35.665,17.097,34.775L5.806,23.483L23.483,5.806L34.775,17.097C35.665,16.685,36.573,16.307,37.500,15.966L37.500,0.000L62.500,0.000L62.500,15.966C63.427,16.307,64.335,16.685,65.225,17.097L76.517,5.806L94.194,23.483L82.903,34.775C83.315,35.665,83.693,36.573,84.034,37.500L100.000,37.500L100.000,62.500L84.034,62.500C83.693,63.427,83.315,64.335,82.903,65.225L94.194,76.517L76.517,94.194L65.225,82.903C64.335,83.315,63.427,83.693,62.500,84.034L62.500,100.000L37.500,100.000L37.500,84.034C36.573,83.693,35.665,83.315,34.775,82.903L23.483,94.194L5.806,76.517L17.097,65.225ZM50.938,32.500C40.762,32.500,32.500,40.762,32.500,50.938C32.500,61.113,40.762,69.375,50.938,69.375C61.113,69.375,69.375,61.113,69.375,50.938C69.375,40.762,61.113,32.500,50.938,32.500Z" style="fill: none; stroke-width: 2; stroke: rgb(0, 0, 0); stroke-opacity: 1;"/></g></g></g></svg>